<?xml version="1.0" standalone="no"?><!DOCTYPE svg PUBLIC "-//W3C//DTD SVG 1.1//EN" "http://www.w3.org/Graphics/SVG/1.1/DTD/svg11.dtd"><svg t="1650896531711" class="icon" viewBox="0 0 1024 1024" version="1.1" xmlns="http://www.w3.org/2000/svg" p-id="2819" xmlns:xlink="http://www.w3.org/1999/xlink" width="200" height="200"><defs><style type="text/css">@font-face { font-family: feedback-iconfont; src: url("//at.alicdn.com/t/font_1031158_u69w8yhxdu.woff2?t=1630033759944") format("woff2"), url("//at.alicdn.com/t/font_1031158_u69w8yhxdu.woff?t=1630033759944") format("woff"), url("//at.alicdn.com/t/font_1031158_u69w8yhxdu.ttf?t=1630033759944") format("truetype"); }
</style></defs><path d="M569.137 878.143c-2.927 2.36-5.63 6.359-6.107 9.89l-34.727 95.643c-3.666 7.526-1.473 15.06 3.18 19.537 3.67 3.544 10.03 5.418 15.159 5.418 0.986 0 3.67 0 5.143-1.41l102.209-27.089c4.157-1.41 8.314-2.824 11.007-5.418l249.175-223.518-94.63-95.161-250.409 222.108z m257.8-815.387c0-28.967-13.975-45.036-45.032-45.036l-709.407-0.225c-30.561 0-55.993 24.022-55.993 53.935v865.832c0 12.961 11.493 24.031 25.432 24.031 6.593 0 13.93-3.067 18.582-8.007 65.532-67.604 96.828-108.118 111.266-115.644 11.002 3.292 31.291 34.385 41.564 49.927 22.495 34.151 46.464 69.725 81.677 70.657 35.448 0 59.916-33.439 86.321-69.482 12.957-18.127 37.411-51.58 48.9-51.58 9.786 0 30.075 28.976 42.555 46.396l354.136-325.408V62.756zM566.89 603.463H186.718c-19.622 0-35.304-9.921-35.304-22.766 0-12.353 15.938-22.757 35.304-22.757H566.39c19.865 0 35.304 10.079 35.304 22.757 0 12.687-15.438 22.766-34.804 22.766zM151.414 400.445c0-12.362 15.938-22.761 35.304-22.761h245.059c19.37 0 35.061 10.399 35.304 22.761 0 12.353-15.934 22.761-35.304 22.761H186.718c-19.622 0.001-35.304-9.916-35.304-22.761zM656.953 242.95H186.718c-19.622 0-35.304-9.921-35.304-22.766 0-12.353 15.938-22.761 35.304-22.761h470.235c19.37 0 35.061 10.408 35.304 22.761 0 12.354-15.934 22.766-35.304 22.766z m333.276 351.853c-25.918-25.45-75.318-24.031-106.38 3.999l-24.446 21.433 96.098 96.093 24.455-21.428c31.534-28.976 36.191-73.967 10.273-100.097z" p-id="2820" fill="#f8450a"></path></svg>